<!-- Generated by IcoMoon.io -->
<svg version="1.1" xmlns="http://www.w3.org/2000/svg" width="32" height="32" viewBox="0 0 32 32">
 <title>facebook</title>
 <path d="m20.244765,18.263655c0,2.345791 -1.898973,4.244764 -4.244764,4.244764s-4.244764,-1.898973 -4.244764,-4.244764s1.898973,-4.244764 4.244764,-4.244764s4.244764,1.898973 4.244764,4.244764zm8.686653,-10.638193c1.695277,0 3.068583,1.373306 3.068583,3.068583l0,8.042711l0,6.820534c0,1.806982 -1.465298,3.272279 -3.272279,3.272279l-25.455442,0c-1.806982,0 -3.272279,-1.465298 -3.272279,-3.272279l0,-6.827105l0,-8.03614l0,0c0,-1.695277 1.373306,-3.068583 3.068583,-3.068583l6.137167,0l0.289117,-1.222177c0.440246,-1.892403 2.128953,-3.232854 4.073922,-3.232854l4.868994,0c1.944969,0 3.633676,1.340452 4.073922,3.232854l0.282546,1.222177l6.137167,0zm-22.531418,4.428748c0,-0.847639 -0.689938,-1.537577 -1.537577,-1.537577c-0.854209,0 -1.544148,0.689938 -1.544148,1.537577s0.689938,1.537577 1.537577,1.537577c0.854209,0.006571 1.544148,-0.683368 1.544148,-1.537577zm17.16961,6.209446c0,-4.179056 -3.390555,-7.56961 -7.56961,-7.56961s-7.56961,3.390555 -7.56961,7.56961s3.390555,7.56961 7.56961,7.56961s7.56961,-3.390555 7.56961,-7.56961z"/>
</svg>